The audio was badly out of sync.
Now it is not.


SUMMARY

Examining how objects from space may have altered the course of Earth's history.

DETAILS

General

Complete name                            : 

The.Universe.S07E07.When.Space.Changed.History.avi
Format                                   : AVI
Format/Info                              : Audio Video Interleave
File size                                : 685 MiB
Duration                                 : 43mn 30s
Overall bit rate                         : 2 203 Kbps

Video

ID                                       : 0
Format                                   : MPEG-4 Visual
Format profile                           : Simple@L3
Format settings, BVOP                    : No
Format settings, QPel                    : No
Format settings, GMC                     : No warppoints
Format settings, Matrix                  : Default (H.263)
Codec ID                                 : XVID
Codec ID/Hint                            : XviD
Duration                                 : 43mn 30s
Bit rate                                 : 2 065 Kbps
Width                                    : 1 920 pixels
Height                                   : 1 080 pixels
Display aspect ratio                     : 16:9
Frame rate                               : 23.976 fps
Original frame rate                      : 23.000 fps
Color space                              : YUV
Chroma subsampling                       : 4:2:0
Bit depth                                : 8 bits
Scan type                                : Progressive
Compression mode                         : Lossy
Bits/(Pixel*Frame)                       : 0.042
Stream size                              : 643 MiB (94%)
Writing library                          : XviD 1.2.1 (UTC 2008-12-04)

Audio

ID                                       : 1
Format                                   : MPEG Audio
Format version                           : Version 1
Format profile                           : Layer 3
Codec ID                                 : 55
Codec ID/Hint                            : MP3
Duration                                 : 43mn 30s
Source duration                          : 43mn 30s
Bit rate mode                            : Constant
Bit rate                                 : 128 Kbps
Channel(s)                               : 2 channels
Sampling rate                            : 44.1 KHz
Compression mode                         : Lossy
Stream size                              : 39.8 MiB (6%)
Alignment                                : Split accross interleaves
Interleave, duration                     : 42 ms (1.00 video frame)
Writing library                          : LAMELAME_MAJOR_VERSI